# xmcd
#
# Track frame offsets:
#	183
#	15478
#	26270
#	42998
#	55140
#	69350
#	80730
#	93793
#	118150
#	133523
#	146833
#	158118
#	173278
#	183993
#	201628
#	219325
#
# Disc length: 3379 seconds
#
# Revision: 2
# Processed by: cddbd v1.5.2PL0 Copyright (c) Steve Scherf et al.
# Submitted via: EasyCDDAExtractor 16.0.1.1
#
DISCID=d50d3110
DTITLE=Susan McCann - Diamonds And Dreams
DYEAR=1992
DGENRE=Country
TTITLE0=I Vow To Thee My Country
TTITLE1=When I Hear The Music
TTITLE2=Yellow Roses
TTITLE3=Love Me One More Time
TTITLE4=Coat Of Many Colours
TTITLE5=Little Ole Wine Drinking Me
TTITLE6=The French Song
TTITLE7=String Of Diamonds MEDLEY
TTITLE8=Sonny's Dream
TTITLE9=Have You Ever Been Lonely
TTITLE10=Loving You
TTITLE11=Patches In Heaven
TTITLE12=Pretty Little Girl From Omagh
TTITLE13=Rose Of My Heart
TTITLE14=Never Too Old To Love
TTITLE15=Around Ireland MEDLEY
EXTD=
EXTT0=
EXTT1=
EXTT2=
EXTT3=
EXTT4=
EXTT5=
EXTT6=
EXTT7=
EXTT8=
EXTT9=
EXTT10=
EXTT11=
EXTT12=
EXTT13=
EXTT14=
EXTT15=
PLAYORDER=
